<?xml version="1.0" encoding="UTF-8"?>
<svg xmlns="http://www.w3.org/2000/svg" version="1.1" viewBox="0 0 1254 1254" style="shape-rendering:geometricPrecision; text-rendering:geometricPrecision; image-rendering:optimizeQuality; fill-rule:evenodd; clip-rule:evenodd">
<g><path fill="#f8f8f8" d="M 704.5,282.5 C 704.804,281.85 705.137,281.183 705.5,280.5C 701.58,277.374 697.246,275.04 692.5,273.5C 691.914,273.709 691.414,274.043 691,274.5C 689.64,271.23 687.14,269.563 683.5,269.5C 683.5,268.5 683.5,267.5 683.5,266.5C 682.167,266.5 680.833,266.5 679.5,266.5C 679.649,265.448 679.483,264.448 679,263.5C 677.612,264.554 676.112,264.72 674.5,264C 669.554,260.787 664.387,257.954 659,255.5C 657.862,255.989 656.695,256.322 655.5,256.5C 651.22,254.36 646.886,252.193 642.5,250C 641.167,249.333 639.833,249.333 638.5,250C 554.081,296.206 469.747,342.372 385.5,388.5C 384.501,484.999 384.167,581.665 384.5,678.5C 385.5,678.5 386.5,678.5 387.5,678.5C 391.198,678.333 391.364,679.666 388,682.5C 384.961,681.469 382.461,679.635 380.5,677C 381.449,676.383 382.282,676.549 383,677.5C 383.667,581.167 383.667,484.833 383,388.5C 382.326,390.517 381.159,392.183 379.5,393.5C 380.531,394.7 381.365,396.034 382,397.5C 382.101,467.747 382.268,537.414 382.5,606.5C 381.833,620.5 381.167,634.5 380.5,648.5C 380.79,651.096 381.123,653.929 381.5,657C 380.39,662.652 379.057,662.485 377.5,656.5C 375.418,656.472 373.584,657.139 372,658.5C 370.667,657.833 369.667,656.833 369,655.5C 368.316,656.784 368.483,657.951 369.5,659C 367.667,661.167 365.833,663.333 364,665.5C 363.086,664.346 362.253,664.513 361.5,666C 361.833,666.333 362.167,666.667 362.5,667C 360.527,667.495 358.527,667.662 356.5,667.5C 356.34,669.199 356.506,670.866 357,672.5C 357.914,671.346 358.747,671.513 359.5,673C 359.335,674.117 359.002,675.284 358.5,676.5C 359.729,677.281 361.062,677.781 362.5,678C 361.359,678.741 361.359,679.575 362.5,680.5C 361.41,682.003 360.243,682.336 359,681.5C 357.923,684.789 356.09,685.289 353.5,683C 359.658,680.509 359.658,679.342 353.5,679.5C 353.452,676.708 354.785,674.875 357.5,674C 355.839,673.005 354.505,671.672 353.5,670C 353.905,669.055 354.572,668.388 355.5,668C 354.833,667.333 354.167,666.667 353.5,666C 353.833,662.333 354.167,658.667 354.5,655C 353.096,652.022 352.763,649.022 353.5,646C 352.668,554.903 352.168,463.737 352,372.5C 351.833,433 351.667,493.5 351.5,554C 351.504,615.043 352.17,675.876 353.5,736.5C 352.542,736.953 351.708,737.619 351,738.5C 350.333,614.5 350.333,490.5 351,366.5C 446.808,312.011 543.308,258.677 640.5,206.5C 708.827,242.328 776.827,278.662 844.5,315.5C 832.123,323.354 819.456,330.688 806.5,337.5C 772.156,319.664 738.156,301.33 704.5,282.5 Z"/></g>
<g><path fill="#e3e3e3" d="M 704.5,282.5 C 688,274.084 671.667,265.418 655.5,256.5C 656.695,256.322 657.862,255.989 659,255.5C 664.387,257.954 669.554,260.787 674.5,264C 676.112,264.72 677.612,264.554 679,263.5C 679.483,264.448 679.649,265.448 679.5,266.5C 680.833,266.5 682.167,266.5 683.5,266.5C 683.5,267.5 683.5,268.5 683.5,269.5C 687.14,269.563 689.64,271.23 691,274.5C 691.414,274.043 691.914,273.709 692.5,273.5C 697.246,275.04 701.58,277.374 705.5,280.5C 705.137,281.183 704.804,281.85 704.5,282.5 Z"/></g>
<g><path fill="#f7f7f7" d="M 874.5,575.5 C 870.892,575.19 867.726,573.857 865,571.5C 864.667,571.833 864.333,572.167 864,572.5C 861.185,570.724 858.019,569.724 854.5,569.5C 852.303,569.848 850.47,570.848 849,572.5C 848.308,571.975 847.808,571.308 847.5,570.5C 852.434,569.338 852.601,568.004 848,566.5C 846.984,567.634 846.317,567.301 846,565.5C 843.547,569.269 843.047,568.769 844.5,564C 844.097,562.527 843.43,561.194 842.5,560C 844.618,557.858 847.118,556.358 850,555.5C 850.49,554.207 850.657,552.873 850.5,551.5C 866.278,539.77 882.612,528.77 899.5,518.5C 900.833,498.344 901.5,477.844 901.5,457C 901.5,436.331 901.167,415.831 900.5,395.5C 828.787,439.046 757.453,483.212 686.5,528C 672.882,523.864 659.882,518.031 647.5,510.5C 733.496,455.831 820.163,402.164 907.5,349.5C 916.167,354.167 924.833,358.833 933.5,363.5C 934.667,421.497 934.833,479.497 934,537.5C 914.195,550.313 894.362,562.979 874.5,575.5 Z"/></g>
<g><path fill="#f2f2f2" d="M 387.5,678.5 C 387.5,678.167 387.5,677.833 387.5,677.5C 430.324,648.863 473.324,620.363 516.5,592C 518.553,591.675 520.553,592.009 522.5,593C 532.864,598.182 543.198,603.349 553.5,608.5C 486.805,651.177 420.138,693.844 353.5,736.5C 352.17,675.876 351.504,615.043 351.5,554C 351.667,493.5 351.833,433 352,372.5C 352.168,463.737 352.668,554.903 353.5,646C 352.763,649.022 353.096,652.022 354.5,655C 354.167,658.667 353.833,662.333 353.5,666C 354.167,666.667 354.833,667.333 355.5,668C 354.572,668.388 353.905,669.055 353.5,670C 354.505,671.672 355.839,673.005 357.5,674C 354.785,674.875 353.452,676.708 353.5,679.5C 359.658,679.342 359.658,680.509 353.5,683C 356.09,685.289 357.923,684.789 359,681.5C 360.243,682.336 361.41,682.003 362.5,680.5C 361.359,679.575 361.359,678.741 362.5,678C 361.062,677.781 359.729,677.281 358.5,676.5C 359.002,675.284 359.335,674.117 359.5,673C 358.747,671.513 357.914,671.346 357,672.5C 356.506,670.866 356.34,669.199 356.5,667.5C 358.527,667.662 360.527,667.495 362.5,667C 362.167,666.667 361.833,666.333 361.5,666C 362.253,664.513 363.086,664.346 364,665.5C 365.833,663.333 367.667,661.167 369.5,659C 368.483,657.951 368.316,656.784 369,655.5C 369.667,656.833 370.667,657.833 372,658.5C 373.584,657.139 375.418,656.472 377.5,656.5C 379.057,662.485 380.39,662.652 381.5,657C 381.123,653.929 380.79,651.096 380.5,648.5C 381.167,634.5 381.833,620.5 382.5,606.5C 382.268,537.414 382.101,467.747 382,397.5C 381.365,396.034 380.531,394.7 379.5,393.5C 381.159,392.183 382.326,390.517 383,388.5C 383.667,484.833 383.667,581.167 383,677.5C 382.282,676.549 381.449,676.383 380.5,677C 382.461,679.635 384.961,681.469 388,682.5C 391.364,679.666 391.198,678.333 387.5,678.5 Z"/></g>
<g><path fill="#bababa" d="M 900.5,395.5 C 901.167,415.831 901.5,436.331 901.5,457C 901.5,477.844 900.833,498.344 899.5,518.5C 900.494,477.572 900.827,436.572 900.5,395.5 Z"/></g>
<g><path fill="#f1f1f1" d="M 850.5,551.5 C 850.657,552.873 850.49,554.207 850,555.5C 847.118,556.358 844.618,557.858 842.5,560C 843.43,561.194 844.097,562.527 844.5,564C 843.047,568.769 843.547,569.269 846,565.5C 846.317,567.301 846.984,567.634 848,566.5C 852.601,568.004 852.434,569.338 847.5,570.5C 847.808,571.308 848.308,571.975 849,572.5C 850.47,570.848 852.303,569.848 854.5,569.5C 858.019,569.724 861.185,570.724 864,572.5C 864.333,572.167 864.667,571.833 865,571.5C 867.726,573.857 870.892,575.19 874.5,575.5C 843.71,596.735 812.71,617.735 781.5,638.5C 777.962,636.279 774.962,633.445 772.5,630C 770.167,629 767.833,628 765.5,627C 766.337,625.989 766.67,624.822 766.5,623.5C 763.218,623.575 760.885,623.075 759.5,622C 758.833,622.667 758.167,623.333 757.5,624C 759.001,625.252 760.668,626.252 762.5,627C 758.991,627.336 756.158,628.836 754,631.5C 752.036,631.06 749.87,630.226 747.5,629C 748.167,628.667 748.833,628.333 749.5,628C 747.963,626.89 747.297,625.39 747.5,623.5C 780.951,598.271 815.284,574.271 850.5,551.5 Z"/></g>
<g><path fill="#e0e0df" d="M 933.5,602.5 C 934.497,621.326 934.83,640.326 934.5,659.5C 934.158,660.338 933.492,660.672 932.5,660.5C 932.667,647.163 932.5,633.829 932,620.5C 931.667,625.167 931.333,629.833 931,634.5C 930.043,630.065 928.209,629.565 925.5,633C 925.957,633.414 926.291,633.914 926.5,634.5C 924.922,635.298 923.256,635.798 921.5,636C 922.925,637.714 922.592,639.047 920.5,640C 921.594,642.323 922.427,645.156 923,648.5C 924.394,650.402 926.227,650.735 928.5,649.5C 928.498,647.169 929.331,645.169 931,643.5C 931.828,648.202 931.662,652.869 930.5,657.5C 927.711,657.878 925.211,656.878 923,654.5C 922.667,654.833 922.333,655.167 922,655.5C 921.333,654.167 920.333,653.167 919,652.5C 918.259,653.641 917.425,653.641 916.5,652.5C 915.757,651.092 914.923,649.759 914,648.5C 913.586,648.957 913.086,649.291 912.5,649.5C 910.167,648.167 907.833,646.833 905.5,645.5C 904.243,648.505 902.576,651.505 900.5,654.5C 903.177,655.575 902.177,655.575 897.5,654.5C 898.668,653.094 898.335,651.928 896.5,651C 894.804,649.795 893.137,649.295 891.5,649.5C 894.099,647.521 896.765,645.521 899.5,643.5C 900.167,635.5 900.833,627.5 901.5,619.5C 912.194,613.821 922.86,608.154 933.5,602.5 Z"/></g>
<g><path fill="#414242" d="M 933.5,602.5 C 933.56,601.957 933.893,601.624 934.5,601.5C 935.828,620.996 935.828,640.329 934.5,659.5C 934.83,640.326 934.497,621.326 933.5,602.5 Z"/></g>
<g><path fill="#ecebeb" d="M 781.5,638.5 C 767.192,649.322 752.526,659.656 737.5,669.5C 735.513,668.836 733.846,667.669 732.5,666C 732.833,665.667 733.167,665.333 733.5,665C 731.757,663.89 730.424,662.39 729.5,660.5C 724.538,661.027 724.205,662.527 728.5,665C 727.833,667 727.167,669 726.5,671C 724.837,671.265 723.337,670.765 722,669.5C 718.989,669.856 715.989,670.19 713,670.5C 710.35,669.956 708.184,668.622 706.5,666.5C 706.709,665.914 707.043,665.414 707.5,665C 703.284,665.299 700.951,663.133 700.5,658.5C 715.861,646.48 731.527,634.813 747.5,623.5C 747.297,625.39 747.963,626.89 749.5,628C 748.833,628.333 748.167,628.667 747.5,629C 749.87,630.226 752.036,631.06 754,631.5C 756.158,628.836 758.991,627.336 762.5,627C 760.668,626.252 759.001,625.252 757.5,624C 758.167,623.333 758.833,622.667 759.5,622C 760.885,623.075 763.218,623.575 766.5,623.5C 766.67,624.822 766.337,625.989 765.5,627C 767.833,628 770.167,629 772.5,630C 774.962,633.445 777.962,636.279 781.5,638.5 Z"/></g>
<g><path fill="#cecdcc" d="M 385.5,388.5 C 384.836,485.172 385.502,581.506 387.5,677.5C 387.5,677.833 387.5,678.167 387.5,678.5C 386.5,678.5 385.5,678.5 384.5,678.5C 384.167,581.665 384.501,484.999 385.5,388.5 Z"/></g>
<g><path fill="#e6e6e6" d="M 700.5,658.5 C 700.951,663.133 703.284,665.299 707.5,665C 707.043,665.414 706.709,665.914 706.5,666.5C 708.184,668.622 710.35,669.956 713,670.5C 715.989,670.19 718.989,669.856 722,669.5C 723.337,670.765 724.837,671.265 726.5,671C 727.167,669 727.833,667 728.5,665C 724.205,662.527 724.538,661.027 729.5,660.5C 730.424,662.39 731.757,663.89 733.5,665C 733.167,665.333 732.833,665.667 732.5,666C 733.846,667.669 735.513,668.836 737.5,669.5C 714.687,686.741 691.687,703.741 668.5,720.5C 666.8,717.793 664.633,715.46 662,713.5C 660.345,713.802 659.012,715.136 658,717.5C 656.691,715.109 655.691,715.109 655,717.5C 654.333,714.833 653.667,714.833 653,717.5C 652.276,715.041 650.943,714.041 649,714.5C 648.667,713.833 648.333,713.167 648,712.5C 647.333,713.833 646.667,713.833 646,712.5C 646.958,710.213 646.124,708.547 643.5,707.5C 642.571,706.311 642.238,704.978 642.5,703.5C 661.256,687.742 680.589,672.742 700.5,658.5 Z"/></g>
<g><path fill="#d6d5d5" d="M 932.5,660.5 C 911.204,674.82 889.87,689.154 868.5,703.5C 866.278,702.312 863.945,701.312 861.5,700.5C 860.252,701.04 859.085,701.707 858,702.5C 855.356,700.184 852.523,698.184 849.5,696.5C 846.051,697.655 842.884,698.655 840,699.5C 839.355,698.354 838.522,697.354 837.5,696.5C 840.212,695.933 842.879,695.599 845.5,695.5C 842.815,694.966 840.148,693.633 837.5,691.5C 836.575,690.643 835.908,689.643 835.5,688.5C 853.591,674.753 872.258,661.753 891.5,649.5C 893.137,649.295 894.804,649.795 896.5,651C 898.335,651.928 898.668,653.094 897.5,654.5C 902.177,655.575 903.177,655.575 900.5,654.5C 902.576,651.505 904.243,648.505 905.5,645.5C 907.833,646.833 910.167,648.167 912.5,649.5C 913.086,649.291 913.586,648.957 914,648.5C 914.923,649.759 915.757,651.092 916.5,652.5C 917.425,653.641 918.259,653.641 919,652.5C 920.333,653.167 921.333,654.167 922,655.5C 922.333,655.167 922.667,654.833 923,654.5C 925.211,656.878 927.711,657.878 930.5,657.5C 931.662,652.869 931.828,648.202 931,643.5C 929.331,645.169 928.498,647.169 928.5,649.5C 926.227,650.735 924.394,650.402 923,648.5C 922.427,645.156 921.594,642.323 920.5,640C 922.592,639.047 922.925,637.714 921.5,636C 923.256,635.798 924.922,635.298 926.5,634.5C 926.291,633.914 925.957,633.414 925.5,633C 928.209,629.565 930.043,630.065 931,634.5C 931.333,629.833 931.667,625.167 932,620.5C 932.5,633.829 932.667,647.163 932.5,660.5 Z"/></g>
<g><path fill="#cecdcd" d="M 835.5,688.5 C 835.908,689.643 836.575,690.643 837.5,691.5C 840.148,693.633 842.815,694.966 845.5,695.5C 842.879,695.599 840.212,695.933 837.5,696.5C 838.522,697.354 839.355,698.354 840,699.5C 842.884,698.655 846.051,697.655 849.5,696.5C 852.523,698.184 855.356,700.184 858,702.5C 859.085,701.707 860.252,701.04 861.5,700.5C 863.945,701.312 866.278,702.312 868.5,703.5C 853.523,714.134 838.523,724.801 823.5,735.5C 821.589,735.426 820.422,734.426 820,732.5C 819.744,729.443 819.244,726.443 818.5,723.5C 819.074,721.941 819.74,720.441 820.5,719C 819.285,716.904 818.451,717.071 818,719.5C 817.191,715.357 814.691,712.857 810.5,712C 809.794,711.033 809.794,709.2 810.5,706.5C 818.295,699.768 826.629,693.768 835.5,688.5 Z"/></g>
<g><path fill="#c5c5c5" d="M 810.5,706.5 C 809.794,709.2 809.794,711.033 810.5,712C 814.691,712.857 817.191,715.357 818,719.5C 818.451,717.071 819.285,716.904 820.5,719C 819.74,720.441 819.074,721.941 818.5,723.5C 819.244,726.443 819.744,729.443 820,732.5C 820.422,734.426 821.589,735.426 823.5,735.5C 790.956,759.035 758.956,783.368 727.5,808.5C 725.583,807.884 724.416,806.55 724,804.5C 723.282,805.451 722.449,805.617 721.5,805C 720.833,803.667 719.833,802.667 718.5,802C 717.079,800.579 715.245,798.745 713,796.5C 712.667,796.833 712.333,797.167 712,797.5C 711.598,796.128 711.098,794.795 710.5,793.5C 711.025,792.808 711.692,792.308 712.5,792C 712.167,791.667 711.833,791.333 711.5,791C 712.833,790.333 714.167,789.667 715.5,789C 713.599,787.252 711.599,785.752 709.5,784.5C 742.019,756.977 775.686,730.977 810.5,706.5 Z"/></g>
<g><path fill="#e1e0e0" d="M 642.5,703.5 C 642.238,704.978 642.571,706.311 643.5,707.5C 646.124,708.547 646.958,710.213 646,712.5C 646.667,713.833 647.333,713.833 648,712.5C 648.333,713.167 648.667,713.833 649,714.5C 650.943,714.041 652.276,715.041 653,717.5C 653.667,714.833 654.333,714.833 655,717.5C 655.691,715.109 656.691,715.109 658,717.5C 659.012,715.136 660.345,713.802 662,713.5C 664.633,715.46 666.8,717.793 668.5,720.5C 634.921,746.733 601.588,773.399 568.5,800.5C 546.648,789.741 524.981,778.741 503.5,767.5C 505.379,767.607 505.712,767.107 504.5,766C 505.87,764.559 506.87,762.892 507.5,761C 510.508,759.272 513.508,757.606 516.5,756C 514,755.167 513.833,754 516,752.5C 516.667,753.167 517.333,753.833 518,754.5C 519.945,753.308 521.945,753.308 524,754.5C 527.555,752.33 531.388,749.664 535.5,746.5C 537.5,747.5 539.5,748.5 541.5,749.5C 542.107,749.376 542.44,749.043 542.5,748.5C 551.565,753.538 560.899,757.705 570.5,761C 593.983,741.104 617.983,721.937 642.5,703.5 Z"/></g>
<g><path fill="#e5e5e5" d="M 542.5,748.5 C 542.44,749.043 542.107,749.376 541.5,749.5C 539.5,748.5 537.5,747.5 535.5,746.5C 531.388,749.664 527.555,752.33 524,754.5C 521.945,753.308 519.945,753.308 518,754.5C 517.333,753.833 516.667,753.167 516,752.5C 513.833,754 514,755.167 516.5,756C 513.508,757.606 510.508,759.272 507.5,761C 506.87,762.892 505.87,764.559 504.5,766C 505.712,767.107 505.379,767.607 503.5,767.5C 485.769,759.801 468.436,751.301 451.5,742C 462.662,734.252 473.995,726.752 485.5,719.5C 504.371,729.435 523.371,739.102 542.5,748.5 Z"/></g>
<g><path fill="#323232" d="M 932.5,726.5 C 933.209,725.596 934.209,725.263 935.5,725.5C 935.83,745.007 935.497,764.341 934.5,783.5C 935.154,764.137 934.487,745.137 932.5,726.5 Z"/></g>
<g><path fill="#a3a3a3" d="M 932.5,726.5 C 934.487,745.137 935.154,764.137 934.5,783.5C 928.891,788.311 922.891,792.644 916.5,796.5C 913.609,796.205 910.609,795.205 907.5,793.5C 904.031,791.271 901.865,788.604 901,785.5C 899.984,786.634 899.317,786.301 899,784.5C 898.667,785.167 898.333,785.833 898,786.5C 896.282,783.117 893.615,780.784 890,779.5C 889.517,778.552 889.351,777.552 889.5,776.5C 892.531,773.313 896.031,770.647 900,768.5C 900.168,759.814 900.668,751.148 901.5,742.5C 911.703,736.898 922.037,731.565 932.5,726.5 Z"/></g>
<g><path fill="#9c9b9b" d="M 889.5,776.5 C 889.351,777.552 889.517,778.552 890,779.5C 893.615,780.784 896.282,783.117 898,786.5C 898.333,785.833 898.667,785.167 899,784.5C 899.317,786.301 899.984,786.634 901,785.5C 901.865,788.604 904.031,791.271 907.5,793.5C 910.609,795.205 913.609,796.205 916.5,796.5C 900.538,807.821 884.538,819.154 868.5,830.5C 867.733,829.828 867.066,828.995 866.5,828C 867.451,827.282 867.617,826.449 867,825.5C 864.874,825.791 862.54,826.457 860,827.5C 859.667,827.167 859.333,826.833 859,826.5C 857.47,827.636 856.137,828.636 855,829.5C 852.635,828.711 850.468,827.544 848.5,826C 849.833,824.16 849.666,823.66 848,824.5C 846.262,819.762 845.095,819.762 844.5,824.5C 843.758,822.892 843.591,821.225 844,819.5C 842.984,818.366 842.317,818.699 842,820.5C 840.786,818.951 839.286,817.785 837.5,817C 838.598,816.23 838.598,815.397 837.5,814.5C 854.47,801.347 871.803,788.68 889.5,776.5 Z"/></g>
<g><path fill="#c1c0c0" d="M 480.5,831.5 C 477.376,831.051 474.209,829.718 471,827.5C 468.656,829.774 465.822,830.941 462.5,831C 460.812,833.268 458.979,835.435 457,837.5C 454.438,837.262 452.104,838.262 450,840.5C 448.807,838.557 447.307,838.724 445.5,841C 448.978,843.716 449.311,846.216 446.5,848.5C 417.364,832.098 388.364,815.431 359.5,798.5C 368.665,792.416 377.998,786.583 387.5,781C 390.419,780.448 393.086,781.115 395.5,783C 423.896,799.194 452.229,815.36 480.5,831.5 Z"/></g>
<g><path fill="#969595" d="M 837.5,814.5 C 838.598,815.397 838.598,816.23 837.5,817C 839.286,817.785 840.786,818.951 842,820.5C 842.317,818.699 842.984,818.366 844,819.5C 843.591,821.225 843.758,822.892 844.5,824.5C 845.095,819.762 846.262,819.762 848,824.5C 849.666,823.66 849.833,824.16 848.5,826C 850.468,827.544 852.635,828.711 855,829.5C 856.137,828.636 857.47,827.636 859,826.5C 859.333,826.833 859.667,827.167 860,827.5C 862.54,826.457 864.874,825.791 867,825.5C 867.617,826.449 867.451,827.282 866.5,828C 867.066,828.995 867.733,829.828 868.5,830.5C 849.052,845.731 829.385,860.731 809.5,875.5C 808.237,872.401 806.07,870.067 803,868.5C 802.667,868.833 802.333,869.167 802,869.5C 800.065,867.898 797.899,866.731 795.5,866C 795.833,865.667 796.167,865.333 796.5,865C 794.797,862.066 792.297,860.233 789,859.5C 788.667,860.167 788.333,860.833 788,861.5C 786.333,860.833 784.667,860.167 783,859.5C 782.667,860.167 782.333,860.833 782,861.5C 781.722,860.584 781.222,859.918 780.5,859.5C 799.188,844.15 818.188,829.15 837.5,814.5 Z"/></g>
<g><path fill="#b6b6b5" d="M 709.5,784.5 C 711.599,785.752 713.599,787.252 715.5,789C 714.167,789.667 712.833,790.333 711.5,791C 711.833,791.333 712.167,791.667 712.5,792C 711.692,792.308 711.025,792.808 710.5,793.5C 711.098,794.795 711.598,796.128 712,797.5C 712.333,797.167 712.667,796.833 713,796.5C 715.245,798.745 717.079,800.579 718.5,802C 719.833,802.667 720.833,803.667 721.5,805C 722.449,805.617 723.282,805.451 724,804.5C 724.416,806.55 725.583,807.884 727.5,808.5C 701.687,830.253 676.021,852.253 650.5,874.5C 649.011,871.537 646.677,869.204 643.5,867.5C 642.289,866.28 642.289,865.113 643.5,864C 641.667,862.5 639.833,861 638,859.5C 637.333,860.167 636.667,860.833 636,861.5C 633.51,859.196 631.677,856.529 630.5,853.5C 655.92,829.411 682.253,806.411 709.5,784.5 Z"/></g>
<g><path fill="#b6b6b5" d="M 480.5,831.5 C 508.445,846.802 536.112,862.469 563.5,878.5C 563.719,879.675 563.386,880.675 562.5,881.5C 558.112,883.066 553.778,883.233 549.5,882C 550.293,880.915 550.96,879.748 551.5,878.5C 549.291,877.937 547.791,876.604 547,874.5C 546.333,875.167 545.667,875.833 545,876.5C 544.781,875.062 544.281,873.729 543.5,872.5C 541.61,874.578 539.276,875.911 536.5,876.5C 533.448,875.689 530.615,875.689 528,876.5C 524.973,874.618 522.807,872.618 521.5,870.5C 520.833,870.667 520.167,870.833 519.5,871C 521.997,873.26 521.33,874.593 517.5,875C 517.833,875.333 518.167,875.667 518.5,876C 516.183,877.32 514.183,878.986 512.5,881C 513.815,882.395 513.481,883.395 511.5,884C 514.097,884.779 514.097,885.279 511.5,885.5C 489.663,873.416 467.996,861.083 446.5,848.5C 449.311,846.216 448.978,843.716 445.5,841C 447.307,838.724 448.807,838.557 450,840.5C 452.104,838.262 454.438,837.262 457,837.5C 458.979,835.435 460.812,833.268 462.5,831C 465.822,830.941 468.656,829.774 471,827.5C 474.209,829.718 477.376,831.051 480.5,831.5 Z"/></g>
<g><path fill="#adadac" d="M 630.5,853.5 C 631.677,856.529 633.51,859.196 636,861.5C 636.667,860.833 637.333,860.167 638,859.5C 639.833,861 641.667,862.5 643.5,864C 642.289,865.113 642.289,866.28 643.5,867.5C 646.677,869.204 649.011,871.537 650.5,874.5C 630.577,893.087 610.91,912.087 591.5,931.5C 564.536,916.503 537.869,901.17 511.5,885.5C 514.097,885.279 514.097,884.779 511.5,884C 513.481,883.395 513.815,882.395 512.5,881C 514.183,878.986 516.183,877.32 518.5,876C 518.167,875.667 517.833,875.333 517.5,875C 521.33,874.593 521.997,873.26 519.5,871C 520.167,870.833 520.833,870.667 521.5,870.5C 522.807,872.618 524.973,874.618 528,876.5C 530.615,875.689 533.448,875.689 536.5,876.5C 539.276,875.911 541.61,874.578 543.5,872.5C 544.281,873.729 544.781,875.062 545,876.5C 545.667,875.833 546.333,875.167 547,874.5C 547.791,876.604 549.291,877.937 551.5,878.5C 550.96,879.748 550.293,880.915 549.5,882C 553.778,883.233 558.112,883.066 562.5,881.5C 563.386,880.675 563.719,879.675 563.5,878.5C 571.432,882.134 579.099,886.3 586.5,891C 587.833,891.667 589.167,891.667 590.5,891C 603.703,878.295 617.036,865.795 630.5,853.5 Z"/></g>
<g><path fill="#8e8e8e" d="M 780.5,859.5 C 781.222,859.918 781.722,860.584 782,861.5C 782.333,860.833 782.667,860.167 783,859.5C 784.667,860.167 786.333,860.833 788,861.5C 788.333,860.833 788.667,860.167 789,859.5C 792.297,860.233 794.797,862.066 796.5,865C 796.167,865.333 795.833,865.667 795.5,866C 797.899,866.731 800.065,867.898 802,869.5C 802.333,869.167 802.667,868.833 803,868.5C 806.07,870.067 808.237,872.401 809.5,875.5C 797.875,885.644 785.875,895.311 773.5,904.5C 773.422,902.537 772.089,901.037 769.5,900C 769.833,899.667 770.167,899.333 770.5,899C 768.866,898.506 767.199,898.34 765.5,898.5C 765.33,897.178 765.663,896.011 766.5,895C 764.356,891.755 762.356,891.922 760.5,895.5C 761.074,897.059 761.74,898.559 762.5,900C 760.884,900.615 759.551,901.615 758.5,903C 757.092,903.315 755.759,902.982 754.5,902C 755.5,901.667 756.5,901.333 757.5,901C 756.107,899.829 755.273,898.329 755,896.5C 753.167,898.667 751.333,900.833 749.5,903C 749.833,903.333 750.167,903.667 750.5,904C 749.234,904.309 748.067,904.809 747,905.5C 746.667,904.833 746.333,904.167 746,903.5C 743.404,907.53 742.071,907.196 742,902.5C 743.067,901.809 744.234,901.309 745.5,901C 744.304,900.346 744.304,899.846 745.5,899.5C 746.478,899.977 747.311,900.643 748,901.5C 748.167,901.167 748.333,900.833 748.5,900.5C 747.176,899.065 745.51,898.065 743.5,897.5C 745.066,898.061 746.399,897.394 747.5,895.5C 747.167,894.5 746.5,893.833 745.5,893.5C 744.147,894.685 742.98,896.019 742,897.5C 741.081,895.761 739.915,895.094 738.5,895.5C 752.18,883.155 766.18,871.155 780.5,859.5 Z"/></g>
<g><path fill="#8c8c8c" d="M 481.5,936.5 C 481.062,936.435 480.728,936.601 480.5,937C 484.292,939.475 483.958,941.642 479.5,943.5C 476.408,945.336 473.074,945.67 469.5,944.5C 469.649,945.552 469.483,946.552 469,947.5C 467.537,944.823 465.537,943.823 463,944.5C 462.667,942.833 462.333,941.167 462,939.5C 461.026,941.878 460.359,941.544 460,938.5C 459.333,941.167 458.667,941.167 458,938.5C 456.156,943.723 455.323,943.723 455.5,938.5C 452.431,939.302 449.598,939.302 447,938.5C 442.493,939.852 438.327,941.852 434.5,944.5C 409.887,929.856 385.553,914.689 361.5,899C 371.667,892.833 381.833,886.667 392,880.5C 422.006,899.03 451.84,917.696 481.5,936.5 Z"/></g>
<g><path fill="#848484" d="M 773.5,904.5 C 747.227,927.434 721.227,950.768 695.5,974.5C 693.793,973.196 692.126,972.03 690.5,971C 691.711,970.107 691.711,969.274 690.5,968.5C 688.667,967.948 687,967.115 685.5,966C 685.957,965.586 686.291,965.086 686.5,964.5C 684.704,963.859 683.204,962.859 682,961.5C 681.667,961.833 681.333,962.167 681,962.5C 680.232,959.489 678.732,956.989 676.5,955C 677.171,954.014 677.171,952.847 676.5,951.5C 696.265,931.73 716.931,913.063 738.5,895.5C 739.915,895.094 741.081,895.761 742,897.5C 742.98,896.019 744.147,894.685 745.5,893.5C 746.5,893.833 747.167,894.5 747.5,895.5C 746.399,897.394 745.066,898.061 743.5,897.5C 745.51,898.065 747.176,899.065 748.5,900.5C 748.333,900.833 748.167,901.167 748,901.5C 747.311,900.643 746.478,899.977 745.5,899.5C 744.304,899.846 744.304,900.346 745.5,901C 744.234,901.309 743.067,901.809 742,902.5C 742.071,907.196 743.404,907.53 746,903.5C 746.333,904.167 746.667,904.833 747,905.5C 748.067,904.809 749.234,904.309 750.5,904C 750.167,903.667 749.833,903.333 749.5,903C 751.333,900.833 753.167,898.667 755,896.5C 755.273,898.329 756.107,899.829 757.5,901C 756.5,901.333 755.5,901.667 754.5,902C 755.759,902.982 757.092,903.315 758.5,903C 759.551,901.615 760.884,900.615 762.5,900C 761.74,898.559 761.074,897.059 760.5,895.5C 762.356,891.922 764.356,891.755 766.5,895C 765.663,896.011 765.33,897.178 765.5,898.5C 767.199,898.34 768.866,898.506 770.5,899C 770.167,899.333 769.833,899.667 769.5,900C 772.089,901.037 773.422,902.537 773.5,904.5 Z"/></g>
<g><path fill="#838283" d="M 481.5,936.5 C 497.012,945.085 512.012,954.418 526.5,964.5C 526.062,964.435 525.728,964.601 525.5,965C 526.833,965.667 527.833,966.667 528.5,968C 527.183,969.767 525.516,971.101 523.5,972C 521.802,971.503 520.135,971.67 518.5,972.5C 515.145,971.329 514.811,969.662 517.5,967.5C 515.362,967.289 513.195,966.955 511,966.5C 509.946,967.482 509.446,968.649 509.5,970C 513.422,972.323 513.088,972.823 508.5,971.5C 508.141,972.917 506.975,974.25 505,975.5C 501.793,971.816 498.96,968.482 496.5,965.5C 495.328,965.919 494.328,966.585 493.5,967.5C 491.471,966.371 491.137,966.871 492.5,969C 489.785,969.875 488.452,971.708 488.5,974.5C 487.041,974.433 485.708,974.766 484.5,975.5C 467.49,965.665 450.823,955.331 434.5,944.5C 438.327,941.852 442.493,939.852 447,938.5C 449.598,939.302 452.431,939.302 455.5,938.5C 455.323,943.723 456.156,943.723 458,938.5C 458.667,941.167 459.333,941.167 460,938.5C 460.359,941.544 461.026,941.878 462,939.5C 462.333,941.167 462.667,942.833 463,944.5C 465.537,943.823 467.537,944.823 469,947.5C 469.483,946.552 469.649,945.552 469.5,944.5C 473.074,945.67 476.408,945.336 479.5,943.5C 483.958,941.642 484.292,939.475 480.5,937C 480.728,936.601 481.062,936.435 481.5,936.5 Z"/></g>
<g><path fill="#7c7c7c" d="M 676.5,951.5 C 677.171,952.847 677.171,954.014 676.5,955C 678.732,956.989 680.232,959.489 681,962.5C 681.333,962.167 681.667,961.833 682,961.5C 683.204,962.859 684.704,963.859 686.5,964.5C 686.291,965.086 685.957,965.586 685.5,966C 687,967.115 688.667,967.948 690.5,968.5C 691.711,969.274 691.711,970.107 690.5,971C 692.126,972.03 693.793,973.196 695.5,974.5C 688.5,982.167 681.167,989.5 673.5,996.5C 671.958,995.699 670.292,995.366 668.5,995.5C 668.5,994.5 668.5,993.5 668.5,992.5C 666.876,992.36 665.71,993.027 665,994.5C 664.794,990.869 663.627,990.535 661.5,993.5C 664.131,995.005 663.797,995.671 660.5,995.5C 660.735,992.188 659.735,991.355 657.5,993C 658.022,993.95 658.689,994.784 659.5,995.5C 658.282,995.109 657.448,995.776 657,997.5C 656.667,995.833 656.333,994.167 656,992.5C 653.2,993.443 650.366,993.276 647.5,992C 648.479,990.221 648.146,988.555 646.5,987C 648.259,986.202 649.926,986.369 651.5,987.5C 650.494,988.396 650.494,989.062 651.5,989.5C 652.914,988.535 653.747,987.535 654,986.5C 655.963,987.625 657.796,988.959 659.5,990.5C 659.833,989.833 660.167,989.167 660.5,988.5C 659.935,986.595 658.935,984.929 657.5,983.5C 657.709,982.914 658.043,982.414 658.5,982C 656.754,981.529 655.087,980.862 653.5,980C 655.569,979.676 655.902,978.842 654.5,977.5C 655,976.5 655.5,975.5 656,974.5C 657.333,975.833 658.667,977.167 660,978.5C 660.419,977.328 661.085,976.328 662,975.5C 661.84,972.841 661.34,970.174 660.5,967.5C 665.5,961.833 670.833,956.5 676.5,951.5 Z"/></g>
<g><path fill="#7d7c7c" d="M 526.5,964.5 C 540.01,971.751 553.01,979.751 565.5,988.5C 564.226,989.189 564.226,990.023 565.5,991C 563.333,992.833 561.167,994.667 559,996.5C 558.667,996.167 558.333,995.833 558,995.5C 557.503,998.55 556.003,999.55 553.5,998.5C 552.071,999.935 550.405,1000.94 548.5,1001.5C 547.558,1001.39 546.725,1001.06 546,1000.5C 545.667,1001.5 545.333,1002.5 545,1003.5C 541.599,1002.25 537.766,1001.58 533.5,1001.5C 533.768,1003.1 533.434,1004.43 532.5,1005.5C 516.212,995.861 500.212,985.861 484.5,975.5C 485.708,974.766 487.041,974.433 488.5,974.5C 488.452,971.708 489.785,969.875 492.5,969C 491.137,966.871 491.471,966.371 493.5,967.5C 494.328,966.585 495.328,965.919 496.5,965.5C 498.96,968.482 501.793,971.816 505,975.5C 506.975,974.25 508.141,972.917 508.5,971.5C 513.088,972.823 513.422,972.323 509.5,970C 509.446,968.649 509.946,967.482 511,966.5C 513.195,966.955 515.362,967.289 517.5,967.5C 514.811,969.662 515.145,971.329 518.5,972.5C 520.135,971.67 521.802,971.503 523.5,972C 525.516,971.101 527.183,969.767 528.5,968C 527.833,966.667 526.833,965.667 525.5,965C 525.728,964.601 526.062,964.435 526.5,964.5 Z"/></g>
<g><path fill="#767575" d="M 660.5,967.5 C 661.34,970.174 661.84,972.841 662,975.5C 661.085,976.328 660.419,977.328 660,978.5C 658.667,977.167 657.333,975.833 656,974.5C 655.5,975.5 655,976.5 654.5,977.5C 655.902,978.842 655.569,979.676 653.5,980C 655.087,980.862 656.754,981.529 658.5,982C 658.043,982.414 657.709,982.914 657.5,983.5C 658.935,984.929 659.935,986.595 660.5,988.5C 660.167,989.167 659.833,989.833 659.5,990.5C 657.796,988.959 655.963,987.625 654,986.5C 653.747,987.535 652.914,988.535 651.5,989.5C 650.494,989.062 650.494,988.396 651.5,987.5C 649.926,986.369 648.259,986.202 646.5,987C 648.146,988.555 648.479,990.221 647.5,992C 650.366,993.276 653.2,993.443 656,992.5C 656.333,994.167 656.667,995.833 657,997.5C 657.448,995.776 658.282,995.109 659.5,995.5C 658.689,994.784 658.022,993.95 657.5,993C 659.735,991.355 660.735,992.188 660.5,995.5C 663.797,995.671 664.131,995.005 661.5,993.5C 663.627,990.535 664.794,990.869 665,994.5C 665.71,993.027 666.876,992.36 668.5,992.5C 668.5,993.5 668.5,994.5 668.5,995.5C 670.292,995.366 671.958,995.699 673.5,996.5C 663.139,1007.19 652.806,1017.86 642.5,1028.5C 639.12,1027.75 635.786,1026.75 632.5,1025.5C 631.558,1025.61 630.725,1025.94 630,1026.5C 628.777,1024.01 627.277,1023.85 625.5,1026C 625.833,1026.33 626.167,1026.67 626.5,1027C 624.681,1029.06 624.015,1031.22 624.5,1033.5C 623.252,1032.96 622.085,1032.29 621,1031.5C 620.086,1032.65 619.253,1032.49 618.5,1031C 618.833,1030.67 619.167,1030.33 619.5,1030C 617.273,1029.88 615.44,1029.05 614,1027.5C 613.692,1028.31 613.192,1028.97 612.5,1029.5C 611.476,1028.15 610.143,1027.48 608.5,1027.5C 608.167,1025.5 607.833,1023.5 607.5,1021.5C 603.858,1022.08 600.191,1022.58 596.5,1023C 595.898,1025.04 594.898,1026.87 593.5,1028.5C 593.709,1029.09 594.043,1029.59 594.5,1030C 592.097,1033.06 590.43,1032.89 589.5,1029.5C 588.5,1030 587.5,1030.5 586.5,1031C 586.141,1033.63 585.141,1035.8 583.5,1037.5C 566.295,1027.07 549.295,1016.4 532.5,1005.5C 533.434,1004.43 533.768,1003.1 533.5,1001.5C 537.766,1001.58 541.599,1002.25 545,1003.5C 545.333,1002.5 545.667,1001.5 546,1000.5C 546.725,1001.06 547.558,1001.39 548.5,1001.5C 550.405,1000.94 552.071,999.935 553.5,998.5C 556.003,999.55 557.503,998.55 558,995.5C 558.333,995.833 558.667,996.167 559,996.5C 561.167,994.667 563.333,992.833 565.5,991C 564.226,990.023 564.226,989.189 565.5,988.5C 581.132,997.779 596.799,1007.11 612.5,1016.5C 627.796,999.536 643.796,983.203 660.5,967.5 Z"/></g>
<g><path fill="#706f70" d="M 642.5,1028.5 C 633.861,1038.47 624.861,1048.14 615.5,1057.5C 604.769,1050.81 594.102,1044.14 583.5,1037.5C 585.141,1035.8 586.141,1033.63 586.5,1031C 587.5,1030.5 588.5,1030 589.5,1029.5C 590.43,1032.89 592.097,1033.06 594.5,1030C 594.043,1029.59 593.709,1029.09 593.5,1028.5C 594.898,1026.87 595.898,1025.04 596.5,1023C 600.191,1022.58 603.858,1022.08 607.5,1021.5C 607.833,1023.5 608.167,1025.5 608.5,1027.5C 610.143,1027.48 611.476,1028.15 612.5,1029.5C 613.192,1028.97 613.692,1028.31 614,1027.5C 615.44,1029.05 617.273,1029.88 619.5,1030C 619.167,1030.33 618.833,1030.67 618.5,1031C 619.253,1032.49 620.086,1032.65 621,1031.5C 622.085,1032.29 623.252,1032.96 624.5,1033.5C 624.015,1031.22 624.681,1029.06 626.5,1027C 626.167,1026.67 625.833,1026.33 625.5,1026C 627.277,1023.85 628.777,1024.01 630,1026.5C 630.725,1025.94 631.558,1025.61 632.5,1025.5C 635.786,1026.75 639.12,1027.75 642.5,1028.5 Z"/></g>
</svg>
